<svg id="Ebene_1" data-name="Ebene 1" xmlns="http://www.w3.org/2000/svg" xmlns:xlink="http://www.w3.org/1999/xlink" viewBox="0 0 391 391"><defs><style>.cls-1{fill:url(#Unbenannter_Verlauf_2);}.cls-2{fill:url(#Unbenannter_Verlauf_3);}.cls-3{opacity:0.5;}.cls-4{fill:#030;}</style><linearGradient id="Unbenannter_Verlauf_2" x1="320.39" y1="-17.16" x2="122.29" y2="180.68" gradientTransform="matrix(0.98, -0.18, -0.18, -0.98, -1.95, 276.44)" gradientUnits="userSpaceOnUse"><stop offset="0" stop-color="#0c783c"/><stop offset="1" stop-color="#154024"/></linearGradient><linearGradient id="Unbenannter_Verlauf_3" x1="179.47" y1="66.49" x2="35.61" y2="243.14" gradientTransform="matrix(0.98, -0.18, -0.18, -0.98, -1.95, 276.44)" gradientUnits="userSpaceOnUse"><stop offset="0" stop-color="#1f5a37"/><stop offset="1" stop-color="#154024"/></linearGradient></defs><g id="Ebene_1-2" data-name="Ebene 1"><path class="cls-1" d="M271.13,71.06A18.76,18.76,0,0,0,257,69.82c-17.58,8.41-63.47,31.55-82.9,52.87-17.71,19.44-30.64,44.37-34.76,70.45-3.36,21.29-4.09,72.9,30.15,62.36,28.85-8.88,50.92-34.16,67.61-58.09,17-24.41,29.69-52,35.35-81.3C273.66,110.4,278.5,103,285,103c5,0,10.19,9.13,9.06,14.93-6.24,28.71-4.69,57.66,1.07,86.32,2.84,14.13,6.57,28.08,10.73,41.88.55,1.8,1.08,3.66,1.61,5.54A7.27,7.27,0,0,0,321,252.78,144.23,144.23,0,0,0,271.09,71.06Z"/><path class="cls-2" d="M286.87,257.77c-4.79-15.29-9.14-30.72-12.44-46.4q-.71-3.35-1.34-6.71a7.2,7.2,0,0,0-13.2-2.43,246.17,246.17,0,0,1-32.51,40.64,153,153,0,0,1-27,21.86c-13.92,8.75-31.88,17-48.33,13.48-35.89-7.63-38.84-56.5-34.54-85.62,4.73-32,19.72-61.53,41.44-85.3,17.76-19.43,40-32.56,63.16-44.3a7.26,7.26,0,0,0-1.82-13.58,143.36,143.36,0,0,0-60.09-.07C86.76,64.93,36.57,136.17,46.81,210.54A144.62,144.62,0,0,0,283.2,301.89a27.6,27.6,0,0,0,8.19-29.78C289.77,267.34,288.35,262.5,286.87,257.77Z"/><g class="cls-3"><path class="cls-4" d="M271.13,71.06A18.76,18.76,0,0,0,257,69.82c-17.58,8.41-63.47,31.55-82.9,52.87-17.71,19.44-30.64,44.37-34.76,70.45-3.36,21.29-4.09,72.9,30.15,62.36,28.85-8.88,50.92-34.16,67.61-58.09,17-24.41,29.69-52,35.35-81.3C273.66,110.4,278.5,103,285,103c5,0,10.19,9.13,9.06,14.93-6.24,28.71-4.69,57.66,1.07,86.32,2.84,14.13,6.57,28.08,10.73,41.88.55,1.8,1.08,3.66,1.61,5.54A7.27,7.27,0,0,0,321,252.78,144.23,144.23,0,0,0,271.09,71.06Z"/><path class="cls-4" d="M286.87,257.77c-4.79-15.29-9.14-30.72-12.44-46.4q-.71-3.35-1.34-6.71a7.2,7.2,0,0,0-13.2-2.43,246.17,246.17,0,0,1-32.51,40.64,153,153,0,0,1-27,21.86c-13.92,8.75-31.88,17-48.33,13.48-35.89-7.63-38.84-56.5-34.54-85.62,4.73-32,19.72-61.53,41.44-85.3,17.76-19.43,40-32.56,63.16-44.3a7.26,7.26,0,0,0-1.82-13.58,143.36,143.36,0,0,0-60.09-.07C86.76,64.93,36.57,136.17,46.81,210.54A144.62,144.62,0,0,0,283.2,301.89a27.6,27.6,0,0,0,8.19-29.78C289.77,267.34,288.35,262.5,286.87,257.77Z"/></g></g></svg>